<svg xmlns="http://www.w3.org/2000/svg" viewBox="0 0 89.32 96.97"><defs><style>.cls-1{fill:#333;}.cls-2{fill:#d4145a;}</style></defs><title>Recurso 2@1imagoc</title><g id="Capa_2" data-name="Capa 2"><g id="Capa_1-2" data-name="Capa 1"><path class="cls-1" d="M61.05,75a21.22,21.22,0,0,1-1.56,7.87,17,17,0,0,1-5.56,7.07A32,32,0,0,1,43.16,95a63.62,63.62,0,0,1-17.33,2,63.66,63.66,0,0,1-12.62-1A24.74,24.74,0,0,1,5.27,93a10.58,10.58,0,0,1-4.11-4.29A12,12,0,0,1,0,83.53a10.85,10.85,0,0,1,1-4.87,11.24,11.24,0,0,1,2.84-3.59,16,16,0,0,1,4.23-2.49,41.32,41.32,0,0,1,5.21-1.68v-.81A8,8,0,0,1,8.23,67a10.21,10.21,0,0,1-.64-10.31,12.45,12.45,0,0,1,2.95-3.59,16,16,0,0,1,4.29-2.55,32.33,32.33,0,0,1,5-1.57l.12-.81a15.69,15.69,0,0,1-6.55-6A17.74,17.74,0,0,1,11.12,33a22.51,22.51,0,0,1,1.62-8.29,20.14,20.14,0,0,1,5.1-7.35,26,26,0,0,1,8.81-5.22,37.23,37.23,0,0,1,12.86-2,35.57,35.57,0,0,1,5.56.41,37.92,37.92,0,0,1,4.86,1.1L50.51,9q.93-4.75,3.48-6.9A10.09,10.09,0,0,1,60.71,0h9.15L67.31,12.51H54.91L54.57,14a15.85,15.85,0,0,1,5.5,5.85A17.45,17.45,0,0,1,62,28.27a22.42,22.42,0,0,1-1.62,8.28,20,20,0,0,1-5.1,7.36,25.69,25.69,0,0,1-8.86,5.21,37.15,37.15,0,0,1-12.8,2,33.28,33.28,0,0,1-9.39-1.16A7.87,7.87,0,0,0,21,52.25a5.21,5.21,0,0,0-1.22,3.36q0,3.82,6.14,3.82h15Q61,59.43,61.05,75ZM44.83,78.43a4.31,4.31,0,0,0-1.73-3.71q-1.74-1.27-6.49-1.27h-20a6.9,6.9,0,0,0-2.44,3.07,9.29,9.29,0,0,0-.69,3.3,5.08,5.08,0,0,0,2.32,4.4c1.54,1.08,4.24,1.63,8.11,1.63H31.4q7.64,0,10.54-2.2A6.43,6.43,0,0,0,44.83,78.43ZM35,40q4.86,0,7.53-2.14A10.23,10.23,0,0,0,46,31.63a21.69,21.69,0,0,0,.41-2.55c0-.54.06-1,.06-1.28q0-6.48-8.46-6.48-4.86,0-7.53,2.14A10.19,10.19,0,0,0,27,29.66a23.41,23.41,0,0,0-.4,2.55c0,.54-.06,1-.06,1.27Q26.53,40,35,40Z"/><path class="cls-2" d="M77.27,73.68q-4.86,0-6.83-2.2a7,7,0,0,1-2-4.75,13.75,13.75,0,0,1,.29-2.49c.19-1,.36-2,.52-2.84a10.2,10.2,0,0,1,3.53-6.2,11.65,11.65,0,0,1,7.71-2.37q4.86,0,6.83,2.2a7,7,0,0,1,2,4.75A14.72,14.72,0,0,1,89,62.27c-.19,1-.37,2-.52,2.84A10.2,10.2,0,0,1,85,71.31,11.67,11.67,0,0,1,77.27,73.68Z"/></g></g></svg>