<svg xmlns="http://www.w3.org/2000/svg" viewBox="0 0 626.64 138.11"><defs><style>.cls-1{fill:#f2f2f2;}.cls-2{fill:#d4145a;}.cls-3{fill:#333;}</style></defs><title>Recurso 5@1imagoc</title><g id="Capa_2" data-name="Capa 2"><g id="Capa_1-2" data-name="Capa 1"><path class="cls-1" d="M61.05,89.09A21.27,21.27,0,0,1,59.49,97,17.1,17.1,0,0,1,53.93,104a32,32,0,0,1-10.77,5.09,63.23,63.23,0,0,1-17.33,2,62.92,62.92,0,0,1-12.62-1,24.5,24.5,0,0,1-7.94-2.9,10.5,10.5,0,0,1-4.11-4.28A12,12,0,0,1,0,97.66,10.8,10.8,0,0,1,1,92.8a11.13,11.13,0,0,1,2.84-3.59,15.43,15.43,0,0,1,4.23-2.49A38.31,38.31,0,0,1,13.32,85v-.81a8,8,0,0,1-5.09-3.08,10.21,10.21,0,0,1-.64-10.31,12.58,12.58,0,0,1,2.95-3.59,16,16,0,0,1,4.29-2.55,33.42,33.42,0,0,1,5-1.56l.12-.81a15.77,15.77,0,0,1-6.55-6,17.69,17.69,0,0,1-2.26-9.15,22.42,22.42,0,0,1,1.62-8.28,20.13,20.13,0,0,1,5.1-7.36,25.82,25.82,0,0,1,8.81-5.21,37.23,37.23,0,0,1,12.86-2,35.62,35.62,0,0,1,5.56.4,37.92,37.92,0,0,1,4.86,1.11l.58-2.67c.62-3.17,1.78-5.46,3.48-6.89a10.09,10.09,0,0,1,6.72-2.15h9.15L67.31,26.65H54.91l-.34,1.5A16,16,0,0,1,60.07,34,17.48,17.48,0,0,1,62,42.4a22.51,22.51,0,0,1-1.62,8.29A20,20,0,0,1,55.26,58a25.8,25.8,0,0,1-8.86,5.22,37.39,37.39,0,0,1-12.8,2,33.65,33.65,0,0,1-9.39-1.16A7.85,7.85,0,0,0,21,66.38a5.25,5.25,0,0,0-1.22,3.36q0,3.83,6.14,3.83h15Q61,73.57,61.05,89.09ZM44.83,92.57a4.3,4.3,0,0,0-1.73-3.71q-1.74-1.27-6.49-1.28h-20a7,7,0,0,0-2.44,3.07A9.3,9.3,0,0,0,13.44,94a5.09,5.09,0,0,0,2.32,4.4Q18.07,100,23.87,100H31.4q7.64,0,10.54-2.2A6.43,6.43,0,0,0,44.83,92.57ZM35,54.1q4.86,0,7.53-2.14A10.2,10.2,0,0,0,46,45.76a21.69,21.69,0,0,0,.41-2.55c0-.54.06-1,.06-1.27q0-6.49-8.46-6.49c-3.24,0-5.75.72-7.53,2.14A10.19,10.19,0,0,0,27,43.79a23.41,23.41,0,0,0-.4,2.55c0,.54-.06,1-.06,1.28Q26.53,54.1,35,54.1Z"/><path class="cls-1" d="M79.59,86.54A10.92,10.92,0,0,1,72,84a8.59,8.59,0,0,1-2.84-6.72,15.43,15.43,0,0,1,.35-2.89l9.73-48.66H95.46L85.85,73.45h6.83L90.13,86.54ZM88.86,19q-4.29,0-6.32-1.62a5.34,5.34,0,0,1-2-4.4,12.54,12.54,0,0,1,.23-2.32c.15-.85.31-1.62.46-2.32a15.59,15.59,0,0,1,1-3,8.49,8.49,0,0,1,2-2.67A10.3,10.3,0,0,1,87.47.75,13.71,13.71,0,0,1,92.33,0c2.86,0,5,.54,6.32,1.62a5.34,5.34,0,0,1,2,4.4,12.54,12.54,0,0,1-.23,2.32c-.15.85-.31,1.62-.46,2.32a15.59,15.59,0,0,1-1,3,8.38,8.38,0,0,1-2,2.67,10.12,10.12,0,0,1-3.25,1.91A13.71,13.71,0,0,1,88.86,19Z"/><path class="cls-1" d="M99.63,86.54,111.8,25.72H128L125,40.9h.81a30.91,30.91,0,0,1,2.61-5.16,25.72,25.72,0,0,1,3.94-4.92,19.91,19.91,0,0,1,5.21-3.65A14.37,14.37,0,0,1,144,25.72h2.9l-3.25,15.76H139.6c-5.18,0-9.11.94-11.82,2.83s-4.56,5.32-5.56,10.26l-6.37,32Z"/><path class="cls-1" d="M170.88,87.93q-11.24,0-17.72-6.66t-6.49-18.71A47.26,47.26,0,0,1,149,47.33a38.24,38.24,0,0,1,6.55-12.11,30.36,30.36,0,0,1,9.9-8,27.54,27.54,0,0,1,12.57-2.9q11.24,0,17.73,6.66t6.49,18.71a47.32,47.32,0,0,1-2.38,15.24A38.28,38.28,0,0,1,193.36,77a30.23,30.23,0,0,1-10,8A27.58,27.58,0,0,1,170.88,87.93Zm.58-13.09q9.49,0,12.16-13.32l2.21-10.89c.07-.39.15-.89.23-1.51a18.55,18.55,0,0,0,.11-2.08,10.49,10.49,0,0,0-2.2-7q-2.21-2.61-6.49-2.61-9.49,0-12.16,13.32l-2.2,10.89c-.08.39-.16.89-.23,1.51a16.37,16.37,0,0,0-.12,2.09,10.47,10.47,0,0,0,2.2,7Q167.18,74.84,171.46,74.84Z"/><path class="cls-1" d="M230.54,87.93a36.05,36.05,0,0,1-14-2.66,24.91,24.91,0,0,1-10.43-8l10.19-9.5a19.24,19.24,0,0,0,6,5.2,17.81,17.81,0,0,0,8.63,1.88q5.69,0,8.05-2a5.89,5.89,0,0,0,2.38-4.62,4.53,4.53,0,0,0-1.22-3.09q-1.22-1.36-4.46-1.83l-6.14-.8c-5.25-.69-9.27-2.38-12.05-5s-4.17-6.44-4.17-11.32a22.74,22.74,0,0,1,1.51-8.23,19,19,0,0,1,4.63-7,22.85,22.85,0,0,1,7.88-4.81,31.7,31.7,0,0,1,11.24-1.8,33,33,0,0,1,12.8,2.38A25.08,25.08,0,0,1,261.13,34l-10.2,9.51a15.94,15.94,0,0,0-5.61-4.39,16.84,16.84,0,0,0-7.48-1.66,10.55,10.55,0,0,0-6.43,1.77A5.4,5.4,0,0,0,229,43.7a4.51,4.51,0,0,0,1.21,3.08c.82.91,2.3,1.52,4.46,1.82l6.14.82q7.89,1,12.05,5t4.18,11.2a22.14,22.14,0,0,1-1.68,8.47,20.1,20.1,0,0,1-5.05,7.13A24.36,24.36,0,0,1,242,86.13,33.64,33.64,0,0,1,230.54,87.93Z"/><path class="cls-1" d="M274.68,87.82c-3.24,0-5.52-.74-6.83-2.2a7,7,0,0,1-2-4.75,14.92,14.92,0,0,1,.29-2.5c.19-1,.36-2,.52-2.83a10.17,10.17,0,0,1,3.53-6.2A11.67,11.67,0,0,1,277.93,67c3.24,0,5.52.74,6.83,2.2a7,7,0,0,1,2,4.75,14.72,14.72,0,0,1-.29,2.49c-.19,1-.36,2-.52,2.84a10.17,10.17,0,0,1-3.53,6.2A11.65,11.65,0,0,1,274.68,87.82Z"/><path class="cls-2" d="M300.06,86.54l12.16-60.82h16.22l-2.78,14.13h.69a35,35,0,0,1,8-11.35,16.67,16.67,0,0,1,11.58-4.17q6.84,0,10.43,4.11t3.71,11.41h.58a37.19,37.19,0,0,1,8.11-11.18,17.17,17.17,0,0,1,12-4.34q6.72,0,10.26,4.1t3.53,11.27a34,34,0,0,1-.4,5.26c-.28,1.74-.6,3.49-1,5.26l-4.63,23.23h6.14l-2.55,13.09H381.62q-4.64,0-7.19-2.37a8.38,8.38,0,0,1-2.55-6.43,13.86,13.86,0,0,1,.12-1.91,13.21,13.21,0,0,1,.23-1.34L377,50.4c.23-1.08.44-2.17.64-3.25a18.05,18.05,0,0,0,.29-3.13,7.46,7.46,0,0,0-1.22-4.46,4.48,4.48,0,0,0-3.88-1.68,9.31,9.31,0,0,0-5.1,1.57,19.63,19.63,0,0,0-4.4,3.88,24.51,24.51,0,0,0-3.47,5.56,26.64,26.64,0,0,0-2.09,6.37l-6.26,31.28H335.27l7.19-36.14c.23-1.08.42-2.17.58-3.25a22,22,0,0,0,.23-3,7.68,7.68,0,0,0-1.22-4.58c-.81-1.11-2.22-1.68-4.23-1.68a9.57,9.57,0,0,0-5.38,1.57,18.94,18.94,0,0,0-4.35,4,27.05,27.05,0,0,0-5.56,11.82l-6.26,31.28Z"/><path class="cls-2" d="M429.35,87.93q-13,0-19.35-7t-6.37-19.17a43.34,43.34,0,0,1,2.31-14.08,37.56,37.56,0,0,1,6.61-11.93A32.5,32.5,0,0,1,423,27.46a29.65,29.65,0,0,1,13.68-3.13,35.14,35.14,0,0,1,7.29.81,22.69,22.69,0,0,1,7,2.72A16.6,16.6,0,0,1,456.28,33a14.6,14.6,0,0,1,2.15,8.22,16.55,16.55,0,0,1-2.21,8.52,18.48,18.48,0,0,1-6.83,6.49,40.46,40.46,0,0,1-11.93,4.28A100.4,100.4,0,0,1,420,62.44a8.41,8.41,0,0,0-.23,1.63v1a10.2,10.2,0,0,0,2.38,7.07q2.37,2.66,8.39,2.66a16.46,16.46,0,0,0,7.36-1.68q3.42-1.68,7.47-6.78l10,7.88q-5.69,7.53-11.88,10.6A31.22,31.22,0,0,1,429.35,87.93Zm6.37-51.2a12.5,12.5,0,0,0-8.86,3.41,16.21,16.21,0,0,0-4.7,9.33l-.46,2.66A78.15,78.15,0,0,0,432.3,51a24.39,24.39,0,0,0,6.43-2,7.17,7.17,0,0,0,3.13-2.72,7,7,0,0,0,.81-3.36,6.31,6.31,0,0,0-.7-3.19,5,5,0,0,0-1.73-1.85A6.55,6.55,0,0,0,438,37,11.7,11.7,0,0,0,435.72,36.73Z"/><path class="cls-2" d="M509.52,86.54a11.33,11.33,0,0,1-7.3-2.31,8,8,0,0,1-2.9-6.61,17.31,17.31,0,0,1,.12-2,11,11,0,0,1,.23-1.5l.35-1.74h-.7a36.79,36.79,0,0,1-8.11,11.47q-4.51,4.05-11.7,4.05a16.09,16.09,0,0,1-7.36-1.56,13.5,13.5,0,0,1-5-4.4,19.72,19.72,0,0,1-2.9-6.72,36,36,0,0,1-.93-8.4,63,63,0,0,1,2.26-17.55,46.07,46.07,0,0,1,6.08-13.39,28.28,28.28,0,0,1,9-8.57,21.36,21.36,0,0,1,10.95-3A15.7,15.7,0,0,1,502,27.8a12.72,12.72,0,0,1,4.7,8.46h.58L514.38.81H530.6L516,73.45h6.84l-2.55,13.09Zm-22-11.93A10.37,10.37,0,0,0,493.18,73a17.84,17.84,0,0,0,4.4-3.94,23.13,23.13,0,0,0,3.42-5.5A30.6,30.6,0,0,0,503.14,57L505,47.73q.93-4.63-1.74-7.36c-1.78-1.81-4.36-2.72-7.76-2.72q-10.54,0-13.32,13.56l-1.63,8.11c-.15.85-.31,1.93-.46,3.24a28.1,28.1,0,0,0-.23,3.36,9.3,9.3,0,0,0,2,6.37A7,7,0,0,0,487.5,74.61Z"/><path class="cls-2" d="M542.3,86.54A10.92,10.92,0,0,1,534.71,84a8.59,8.59,0,0,1-2.84-6.72,15.43,15.43,0,0,1,.35-2.89L542,25.72h16.22l-9.61,47.73h6.83l-2.55,13.09ZM551.57,19c-2.86,0-5-.54-6.32-1.62a5.34,5.34,0,0,1-2-4.4,12.54,12.54,0,0,1,.23-2.32c.15-.85.31-1.62.46-2.32a15,15,0,0,1,1.05-3,8.19,8.19,0,0,1,2-2.67A10.25,10.25,0,0,1,550.18.75,13.71,13.71,0,0,1,555,0q4.29,0,6.32,1.62a5.34,5.34,0,0,1,2,4.4,12.61,12.61,0,0,1-.24,2.32c-.15.85-.31,1.62-.46,2.32a15.59,15.59,0,0,1-1,3,8.38,8.38,0,0,1-2,2.67,10.12,10.12,0,0,1-3.25,1.91A13.71,13.71,0,0,1,551.57,19Z"/><path class="cls-2" d="M610.54,86.54a11.33,11.33,0,0,1-7.3-2.31,8,8,0,0,1-2.9-6.61,17.31,17.31,0,0,1,.12-2,11,11,0,0,1,.23-1.5l.35-1.74h-.7a36.63,36.63,0,0,1-8.11,11.47q-4.51,4.05-11.7,4.05a16.09,16.09,0,0,1-7.36-1.56,13.5,13.5,0,0,1-5-4.4,19.72,19.72,0,0,1-2.9-6.72,36,36,0,0,1-.93-8.4,63.39,63.39,0,0,1,2.26-17.55,46.07,46.07,0,0,1,6.08-13.39,28.28,28.28,0,0,1,9-8.57,21.36,21.36,0,0,1,11-3,15.7,15.7,0,0,1,10.48,3.47,12.72,12.72,0,0,1,4.7,8.46h.58l2.08-10.54h16.22L617,73.45h6.83l-2.55,13.09Zm-22-11.93A10.36,10.36,0,0,0,594.2,73a17.84,17.84,0,0,0,4.4-3.94,23.13,23.13,0,0,0,3.42-5.5A31.2,31.2,0,0,0,604.17,57L606,47.73a7.61,7.61,0,0,0-1.74-7.18c-1.78-1.93-4.36-2.9-7.76-2.9q-10.54,0-13.32,13.56l-1.63,8.11c-.15.85-.31,1.93-.46,3.24a30.36,30.36,0,0,0-.23,3.36,9.3,9.3,0,0,0,2,6.37A7.05,7.05,0,0,0,588.53,74.61Z"/><rect class="cls-1" x="300.06" y="101.46" width="326.58" height="36.64"/><path class="cls-3" d="M352.14,116.41v-.17a1,1,0,0,0-.2-.68.74.74,0,0,0-.59-.22.9.9,0,0,0-.73.31,1.24,1.24,0,0,0-.27.85v9.34h-2.67v-9.6a1.09,1.09,0,0,0-.18-.69.75.75,0,0,0-.58-.21.93.93,0,0,0-.75.31,1.24,1.24,0,0,0-.27.85v9.34h-2.68V113.11h2.45v1.35a3.16,3.16,0,0,1,.82-1.34,1.74,1.74,0,0,1,1.19-.47,1.88,1.88,0,0,1,1.31.5,2.45,2.45,0,0,1,.75,1.36,4.28,4.28,0,0,1,1.13-1.4,2.4,2.4,0,0,1,3.34.51,6.93,6.93,0,0,1,.6,3.42v8.8h-2.67Z"/><path class="cls-3" d="M361.55,117H358.3v-.19a3.7,3.7,0,0,1,1.31-3,5.23,5.23,0,0,1,3.53-1.12,5.48,5.48,0,0,1,3.59,1,3.67,3.67,0,0,1,1.16,3v5.65a1.81,1.81,0,0,0,.19,1,.82.82,0,0,0,.71.25l.25,0,.32,0v2.45c-.25.07-.49.11-.71.15a4.87,4.87,0,0,1-.65,0,2.89,2.89,0,0,1-1.73-.43,2.11,2.11,0,0,1-.76-1.4,5.52,5.52,0,0,1-1.75,1.48,4.43,4.43,0,0,1-2.07.51,3.92,3.92,0,0,1-2.95-1.09,4.17,4.17,0,0,1-1.06-3,4,4,0,0,1,1.06-2.92,5,5,0,0,1,3.09-1.32l.89-.1c1.27-.13,1.91-.56,1.91-1.28a1.18,1.18,0,0,0-.37-1,1.7,1.7,0,0,0-1.12-.32,1.6,1.6,0,0,0-1.2.41A1.75,1.75,0,0,0,361.55,117Zm3,4.34v-1.47a3,3,0,0,1-1.53.58c-.41.08-.73.14-.95.2a1.49,1.49,0,0,0-.86.55,1.69,1.69,0,0,0-.28,1,1.46,1.46,0,0,0,.37,1,1.28,1.28,0,0,0,.95.4,2.24,2.24,0,0,0,2.3-2.32Z"/><path class="cls-3" d="M372.77,113.11h3.42v2.16a4.47,4.47,0,0,1,1.47-2,3.82,3.82,0,0,1,2.22-.63,3,3,0,0,1,2.6,1.13,5.91,5.91,0,0,1,.84,3.52v.21H380v-.07a2.4,2.4,0,0,0-.42-1.53,1.52,1.52,0,0,0-1.24-.53,1.77,1.77,0,0,0-1.67.88,6.64,6.64,0,0,0-.5,3.08v6.47h-3.42Z"/><path class="cls-3" d="M386.8,108.82h3.28v8l3.72-3.75h4.08l-4.74,4.72,4.91,8h-3.67l-3.42-5.9-.88.92v5H386.8Z"/><path class="cls-3" d="M408,122.43h3.56a6,6,0,0,1-2,2.94,5.84,5.84,0,0,1-3.42.92,4.92,4.92,0,0,1-4-1.83,9,9,0,0,1,0-10,5,5,0,0,1,4.09-1.83,5.15,5.15,0,0,1,4.23,1.8,8.09,8.09,0,0,1,1.45,5.2v.54c0,.12,0,.22,0,.31h-7.94a4.07,4.07,0,0,0,.75,2.23,2,2,0,0,0,1.62.78,1.87,1.87,0,0,0,1-.28A2,2,0,0,0,408,122.43Zm.38-4.37a3.16,3.16,0,0,0-.64-1.94,1.92,1.92,0,0,0-1.56-.69,2,2,0,0,0-1.54.73,3.11,3.11,0,0,0-.67,1.9Z"/><path class="cls-3" d="M425.39,113.53v2.66h-4.06v4.45a3.38,3.38,0,0,0,.58,2.28,2.46,2.46,0,0,0,1.91.64l.83,0,.74-.07v2.71c-.6,0-1.12.07-1.55.08l-1.14,0a5.38,5.38,0,0,1-3.65-1c-.7-.65-1-1.8-1-3.47v-5.67h-3.19v-2.66H418v-3.71h3.33v3.71Z"/><path class="cls-3" d="M440.56,123.21v2.63h-11v-2.63h4.05v-7h-3.08v-2.66h6.43v9.68Zm-7-14.39h3.35V112h-3.35Z"/><path class="cls-3" d="M443.7,113.11h3.39v1.94a4.47,4.47,0,0,1,1.45-1.81,3.61,3.61,0,0,1,2.08-.56,3.33,3.33,0,0,1,2.82,1.06c.54.7.81,2.16.81,4.37v7.73h-3.39v-7.08a6.16,6.16,0,0,0-.35-2.66,1.32,1.32,0,0,0-1.22-.55,1.79,1.79,0,0,0-1.69.89,6.63,6.63,0,0,0-.51,3.07v6.33H443.7Z"/><path class="cls-3" d="M465.47,125.7v-2a6.52,6.52,0,0,1-1.61,1.82,3.16,3.16,0,0,1-1.81.51,3.74,3.74,0,0,1-3.25-1.84,8.78,8.78,0,0,1-1.23-5,8.18,8.18,0,0,1,1.25-4.74,3.77,3.77,0,0,1,3.23-1.82,3.34,3.34,0,0,1,1.87.52,5.7,5.7,0,0,1,1.55,1.79v-1.88h3.27v12.19a4.66,4.66,0,0,1-5.43,5.48,6.84,6.84,0,0,1-3.94-.94,3.16,3.16,0,0,1-1.35-2.76v0h3.18a1,1,0,0,0,.46.88,2.54,2.54,0,0,0,1.34.29,2.59,2.59,0,0,0,1.89-.58A2.62,2.62,0,0,0,465.47,125.7Zm-2.2-2.51a1.91,1.91,0,0,0,1.72-1,5.85,5.85,0,0,0,.62-2.94,5,5,0,0,0-.63-2.72,2,2,0,0,0-1.71-1,1.88,1.88,0,0,0-1.69,1,5.77,5.77,0,0,0-.62,2.91,5.12,5.12,0,0,0,.63,2.72A1.91,1.91,0,0,0,463.27,123.19Z"/><path class="cls-3" d="M494,123.87a5.28,5.28,0,0,1-1.43,1.86,3.12,3.12,0,0,1-1.87.56,3.72,3.72,0,0,1-3.25-1.85,10.66,10.66,0,0,1,0-9.94,3.74,3.74,0,0,1,3.25-1.85,3,3,0,0,1,1.86.57,5.26,5.26,0,0,1,1.44,1.83v-6.23h3.39v17H494Zm-2.16-8.37a1.81,1.81,0,0,0-1.64,1,6,6,0,0,0-.59,2.92,6.1,6.1,0,0,0,.59,2.94,1.81,1.81,0,0,0,1.64,1,1.89,1.89,0,0,0,1.72-1,5.94,5.94,0,0,0,.6-3,5.85,5.85,0,0,0-.6-2.93A1.89,1.89,0,0,0,491.79,115.5Z"/><path class="cls-3" d="M511.94,123.21v2.63h-11v-2.63H505v-7h-3.08v-2.66h6.43v9.68Zm-7-14.39h3.35V112H505Z"/><path class="cls-3" d="M522.57,125.7v-2a6.52,6.52,0,0,1-1.61,1.82,3.12,3.12,0,0,1-1.8.51,3.75,3.75,0,0,1-3.26-1.84,8.78,8.78,0,0,1-1.22-5,8.18,8.18,0,0,1,1.24-4.74,3.78,3.78,0,0,1,3.24-1.82,3.33,3.33,0,0,1,1.86.52,5.58,5.58,0,0,1,1.55,1.79v-1.88h3.28v12.19a5.77,5.77,0,0,1-1.29,4.2,5.68,5.68,0,0,1-4.14,1.28,6.84,6.84,0,0,1-3.94-.94,3.16,3.16,0,0,1-1.35-2.76v0h3.17a1,1,0,0,0,.47.88,2.52,2.52,0,0,0,1.34.29,2.55,2.55,0,0,0,1.88-.58A2.58,2.58,0,0,0,522.57,125.7Zm-2.2-2.51a1.93,1.93,0,0,0,1.73-1,5.85,5.85,0,0,0,.61-2.94,5,5,0,0,0-.63-2.72,1.94,1.94,0,0,0-1.71-1,1.88,1.88,0,0,0-1.69,1,5.78,5.78,0,0,0-.61,2.91,5.12,5.12,0,0,0,.63,2.72A1.91,1.91,0,0,0,520.37,123.19Z"/><path class="cls-3" d="M540.5,123.21v2.63h-11v-2.63h4v-7h-3.08v-2.66h6.43v9.68Zm-7-14.39h3.35V112H533.5Z"/><path class="cls-3" d="M553.88,113.53v2.66h-4.06v4.45a3.38,3.38,0,0,0,.58,2.28,2.44,2.44,0,0,0,1.91.64l.83,0,.74-.07v2.71c-.6,0-1.12.07-1.55.08l-1.15,0a5.4,5.4,0,0,1-3.65-1,4.65,4.65,0,0,1-1-3.47v-5.67H543.3v-2.66h3.18v-3.71h3.34v3.71Z"/><path class="cls-3" d="M561.42,117h-3.26v-.19a3.73,3.73,0,0,1,1.31-3,5.23,5.23,0,0,1,3.53-1.12,5.51,5.51,0,0,1,3.6,1,3.67,3.67,0,0,1,1.15,3v5.65a1.81,1.81,0,0,0,.19,1,.85.85,0,0,0,.71.25l.25,0,.32,0v2.45a7,7,0,0,1-.71.15,4.85,4.85,0,0,1-.64,0,2.9,2.9,0,0,1-1.74-.43,2.1,2.1,0,0,1-.75-1.4,5.55,5.55,0,0,1-1.76,1.48,4.39,4.39,0,0,1-2.06.51,3.92,3.92,0,0,1-2.95-1.09,4.13,4.13,0,0,1-1.06-3,4,4,0,0,1,1.05-2.92,5,5,0,0,1,3.09-1.32l.9-.1c1.27-.13,1.91-.56,1.91-1.28a1.21,1.21,0,0,0-.37-1,1.73,1.73,0,0,0-1.13-.32,1.6,1.6,0,0,0-1.2.41A1.8,1.8,0,0,0,561.42,117Zm3,4.34v-1.47a3,3,0,0,1-1.54.58c-.41.08-.73.14-.95.2a1.56,1.56,0,0,0-.86.55,1.76,1.76,0,0,0-.27,1,1.46,1.46,0,0,0,.37,1,1.24,1.24,0,0,0,.95.4,2.26,2.26,0,0,0,2.3-2.32Z"/><path class="cls-3" d="M573.25,111.47v-2.65h6.43v14.39h3.79v2.63H572.42v-2.63h3.91V111.47Z"/></g></g></svg>