<svg xmlns="http://www.w3.org/2000/svg" viewBox="0 0 286.73 111.1"><defs><style>.cls-1{fill:#333;}.cls-2{fill:#d4145a;}</style></defs><title>Recurso 3@1imagoc</title><g id="Capa_2" data-name="Capa 2"><g id="Capa_1-2" data-name="Capa 1"><path class="cls-1" d="M61.05,89.09A21.27,21.27,0,0,1,59.49,97,17.1,17.1,0,0,1,53.93,104a32,32,0,0,1-10.77,5.09,63.23,63.23,0,0,1-17.33,2,62.92,62.92,0,0,1-12.62-1,24.5,24.5,0,0,1-7.94-2.9,10.5,10.5,0,0,1-4.11-4.28A12,12,0,0,1,0,97.66,10.8,10.8,0,0,1,1,92.8a11.13,11.13,0,0,1,2.84-3.59,15.43,15.43,0,0,1,4.23-2.49A38.31,38.31,0,0,1,13.32,85v-.81a8,8,0,0,1-5.09-3.08,10.21,10.21,0,0,1-.64-10.31,12.58,12.58,0,0,1,2.95-3.59,16,16,0,0,1,4.29-2.55,33.42,33.42,0,0,1,5-1.56l.12-.81a15.82,15.82,0,0,1-6.55-6,17.75,17.75,0,0,1-2.26-9.16,22.42,22.42,0,0,1,1.62-8.28,20.13,20.13,0,0,1,5.1-7.36,25.82,25.82,0,0,1,8.81-5.21,37.23,37.23,0,0,1,12.86-2,35.62,35.62,0,0,1,5.56.4,37.92,37.92,0,0,1,4.86,1.11l.58-2.67c.62-3.17,1.78-5.46,3.48-6.89a10.09,10.09,0,0,1,6.72-2.15h9.15L67.31,26.65H54.91l-.34,1.5A16,16,0,0,1,60.07,34,17.48,17.48,0,0,1,62,42.4a22.51,22.51,0,0,1-1.62,8.29A20,20,0,0,1,55.26,58a25.8,25.8,0,0,1-8.86,5.22,37.39,37.39,0,0,1-12.8,2,33.65,33.65,0,0,1-9.39-1.16A7.85,7.85,0,0,0,21,66.38a5.25,5.25,0,0,0-1.22,3.36q0,3.83,6.14,3.83h15Q61,73.57,61.05,89.09ZM44.83,92.57a4.3,4.3,0,0,0-1.73-3.71q-1.74-1.27-6.49-1.28h-20a7,7,0,0,0-2.44,3.07A9.3,9.3,0,0,0,13.44,94a5.09,5.09,0,0,0,2.32,4.4Q18.07,100,23.87,100H31.4q7.64,0,10.54-2.2A6.43,6.43,0,0,0,44.83,92.57ZM35,54.1q4.86,0,7.53-2.14A10.2,10.2,0,0,0,46,45.76a21.69,21.69,0,0,0,.41-2.55c0-.54.06-1,.06-1.27q0-6.49-8.46-6.49c-3.24,0-5.75.72-7.53,2.14A10.19,10.19,0,0,0,27,43.79a23.41,23.41,0,0,0-.4,2.55c0,.54-.06,1-.06,1.28Q26.53,54.1,35,54.1Z"/><path class="cls-1" d="M79.59,86.54A10.92,10.92,0,0,1,72,84a8.59,8.59,0,0,1-2.84-6.72,15.43,15.43,0,0,1,.35-2.89l9.73-48.66H95.46L85.85,73.45h6.83L90.13,86.54ZM88.86,19q-4.29,0-6.32-1.62a5.34,5.34,0,0,1-2-4.4,12.54,12.54,0,0,1,.23-2.32c.15-.85.31-1.62.46-2.32a15.59,15.59,0,0,1,1-3,8.49,8.49,0,0,1,2-2.67A10.3,10.3,0,0,1,87.47.75,13.71,13.71,0,0,1,92.33,0c2.86,0,5,.54,6.32,1.62a5.34,5.34,0,0,1,2,4.4,12.54,12.54,0,0,1-.23,2.32c-.15.85-.31,1.62-.46,2.32a15.59,15.59,0,0,1-1,3,8.38,8.38,0,0,1-2,2.67,10.12,10.12,0,0,1-3.25,1.91A13.71,13.71,0,0,1,88.86,19Z"/><path class="cls-1" d="M99.63,86.54,111.8,25.72H128L125,40.9h.81a30.91,30.91,0,0,1,2.61-5.16,25.72,25.72,0,0,1,3.94-4.92,19.91,19.91,0,0,1,5.21-3.65A14.37,14.37,0,0,1,144,25.72h2.9l-3.25,15.76H139.6c-5.18,0-9.11.94-11.82,2.83s-4.56,5.32-5.56,10.26l-6.37,32Z"/><path class="cls-1" d="M170.88,87.93q-11.24,0-17.72-6.66t-6.49-18.71A47.26,47.26,0,0,1,149,47.33a38.24,38.24,0,0,1,6.55-12.11,30.36,30.36,0,0,1,9.9-8,27.54,27.54,0,0,1,12.57-2.9q11.24,0,17.73,6.66t6.49,18.71a47.32,47.32,0,0,1-2.38,15.24A38.17,38.17,0,0,1,193.36,77a30.23,30.23,0,0,1-10,8A27.58,27.58,0,0,1,170.88,87.93Zm.58-13.09q9.49,0,12.16-13.32l2.21-10.89c.07-.39.15-.89.23-1.51a18.55,18.55,0,0,0,.11-2.08,10.49,10.49,0,0,0-2.2-7q-2.21-2.61-6.49-2.61-9.49,0-12.16,13.32l-2.2,10.89c-.08.39-.16.89-.23,1.51a16.37,16.37,0,0,0-.12,2.09,10.47,10.47,0,0,0,2.2,7Q167.18,74.84,171.46,74.84Z"/><path class="cls-1" d="M230.54,87.93a36.05,36.05,0,0,1-14-2.66,25,25,0,0,1-10.43-8l10.19-9.51a19.24,19.24,0,0,0,6,5.2,17.81,17.81,0,0,0,8.63,1.88c3.79,0,6.47-.66,8.05-2a5.89,5.89,0,0,0,2.38-4.62,4.55,4.55,0,0,0-1.22-3.09q-1.22-1.36-4.46-1.83l-6.14-.8c-5.25-.69-9.27-2.38-12.05-5s-4.17-6.44-4.17-11.32a22.74,22.74,0,0,1,1.51-8.23,19,19,0,0,1,4.63-7,22.85,22.85,0,0,1,7.88-4.81,31.7,31.7,0,0,1,11.24-1.8,33,33,0,0,1,12.8,2.38A25.08,25.08,0,0,1,261.13,34l-10.2,9.51a15.94,15.94,0,0,0-5.61-4.39,16.84,16.84,0,0,0-7.48-1.66,10.55,10.55,0,0,0-6.43,1.77A5.4,5.4,0,0,0,229,43.7a4.51,4.51,0,0,0,1.21,3.08c.82.91,2.3,1.52,4.46,1.82l6.14.82q7.89,1,12.05,5t4.18,11.2a22.14,22.14,0,0,1-1.68,8.47,20.1,20.1,0,0,1-5.05,7.13A24.54,24.54,0,0,1,242,86.14,33.9,33.9,0,0,1,230.54,87.93Z"/><path class="cls-2" d="M274.68,87.82c-3.24,0-5.52-.74-6.83-2.2a7,7,0,0,1-2-4.75,14.92,14.92,0,0,1,.29-2.5c.19-1,.36-2,.52-2.83a10.17,10.17,0,0,1,3.53-6.2A11.67,11.67,0,0,1,277.93,67c3.24,0,5.52.74,6.83,2.2a7,7,0,0,1,2,4.75,14.72,14.72,0,0,1-.29,2.49c-.19,1-.36,2-.52,2.84a10.17,10.17,0,0,1-3.53,6.2A11.65,11.65,0,0,1,274.68,87.82Z"/></g></g></svg>